<svg width="44" height="23" viewBox="0 0 44 23" fill="none" xmlns="http://www.w3.org/2000/svg">
<path d="M20.4496 1.06494C19.7755 1.06494 19.2279 1.61096 19.2279 2.28668C19.2279 2.76385 19.5001 3.17536 19.8988 3.37712V8.79568H20.9044V3.41875C21.3527 3.23781 21.6698 2.79907 21.6698 2.28668C21.6698 1.61256 21.1238 1.06494 20.448 1.06494H20.4496Z" fill="black"/>
<path d="M24.7544 1.06494C24.0803 1.06494 23.5327 1.61096 23.5327 2.28668C23.5327 2.76385 23.8049 3.17536 24.2036 3.37712V8.79568H25.2091V3.41875C25.6575 3.23781 25.9745 2.79907 25.9745 2.28668C25.9745 1.61256 25.4285 1.06494 24.7528 1.06494H24.7544Z" fill="black"/>
<path d="M30.2808 2.28668C30.2808 1.61256 29.7348 1.06494 29.0591 1.06494C28.3834 1.06494 27.8373 1.61096 27.8373 2.28668C27.8373 2.79427 28.1464 3.2282 28.5867 3.41395V8.79568H29.5923V3.38352C29.999 3.18497 30.2792 2.76865 30.2792 2.28508L30.2808 2.28668Z" fill="black"/>
<path d="M43.6878 0.036884C42.386 1.05527 40.8632 2.12008 39.113 3.13206C38.2068 3.65566 37.3245 4.11522 36.4758 4.52193L19.8262 4.59719C17.498 4.6084 15.3108 5.5227 13.6679 7.17196C12.8529 7.99019 12.2204 8.94132 11.7897 9.97732H4.23986C3.80913 9.41209 3.13021 9.04861 2.36482 9.04861C1.06302 9.04861 0.0078125 10.1038 0.0078125 11.4056C0.0078125 12.7074 1.06302 13.7626 2.36482 13.7626C3.13021 13.7626 3.80913 13.3975 4.23986 12.8339H11.1364C11.1268 13.002 11.1219 13.1718 11.1219 13.3415V14.1918C11.1219 18.5455 14.6639 22.0874 19.0176 22.0874H30.3863C33.7249 22.0874 36.4406 19.3717 36.4406 16.0332C36.4406 12.6946 33.7249 9.97892 30.3863 9.97892H15.0338C15.2291 9.70031 15.4501 9.4361 15.6951 9.18951C16.8015 8.07826 18.273 7.46339 19.8406 7.45538L36.732 7.37852C37.7568 7.8653 38.8328 8.44494 39.9377 9.13827C41.366 10.0334 42.6133 10.9733 43.6846 11.878C43.8143 11.9885 44 11.8828 44 11.697V0.221025C44 0.0400865 43.8207 -0.0671959 43.6894 0.036884H43.6878ZM30.3831 12.8339C32.1461 12.8339 33.5808 14.2686 33.5808 16.0316C33.5808 17.7945 32.1461 19.2292 30.3831 19.2292H19.0144C16.2363 19.2292 13.9753 16.9683 13.9753 14.1902V13.3399C13.9753 13.1702 13.9833 13.0004 13.9962 12.8323H30.3815L30.3831 12.8339Z" fill="black"/>
</svg>
