<svg width="26" height="50" viewBox="0 0 26 50" fill="none" xmlns="http://www.w3.org/2000/svg">
<mask id="path-1-inside-1_2319_376" fill="white">
<path d="M24.8838 10.0837L25.2065 10.0878C25.6286 10.0918 25.9776 9.75298 25.9817 9.3355L26 7.75635C26.004 7.33686 25.6631 6.98997 25.243 6.98594L24.9204 6.98191C24.4983 6.97787 24.1492 7.31669 24.1451 7.73417V7.9782L22.5765 7.96005L22.6373 2.76076C22.6455 2.04883 21.9656 1.52245 21.2736 1.71405C20.6384 1.88951 20.0033 2.11135 19.3721 2.15371C19.2078 2.16581 19.0434 2.13152 18.8932 2.069C17.6289 1.53657 15.6868 0.372879 13.2699 0.37893C11.1168 0.382963 9.34313 1.41556 8.12958 1.91371C7.94085 1.99035 7.73183 2.01051 7.53092 1.97421L4.84813 1.49018C4.19063 1.37119 3.58588 1.86934 3.57777 2.53085L3.51689 7.72207L2.02938 7.70392V7.45989C2.0375 7.04039 1.69657 6.6935 1.27446 6.68947L0.951797 6.68544C0.529694 6.6814 0.180647 7.02023 0.176589 7.4377L0.158325 9.01685C0.154266 9.43634 0.495195 9.78323 0.915269 9.78726L1.23793 9.7913C1.66004 9.79533 2.00908 9.45651 2.01314 9.03903V8.9624L3.50065 8.98055L3.43774 14.2323L1.95023 14.2141V13.9701C1.95835 13.5506 1.61742 13.2037 1.19532 13.1997L0.872653 13.1956C0.45055 13.1916 0.101503 13.5304 0.0974443 13.9479L0.0791802 15.5271C0.0751215 15.9465 0.416051 16.2934 0.836125 16.2975L1.15879 16.3015C1.58089 16.3055 1.92994 15.9667 1.934 15.5492V15.4726L3.42354 15.4908L3.36063 20.7425L1.87312 20.7243V20.4803C1.88124 20.0608 1.54031 19.7139 1.1182 19.7099L0.795538 19.7058C0.373435 19.7018 0.024388 20.0406 0.0203293 20.4581L3.58662e-05 22.0413C-0.00402282 22.4608 0.336907 22.8077 0.75698 22.8117L1.07965 22.8157C1.50175 22.8198 1.8508 22.4809 1.85485 22.0635V21.9868L3.34439 22.005L3.27539 27.8194C3.26931 28.4083 3.74823 28.8903 4.3408 28.8903C6.75977 28.8903 8.712 30.8547 8.68359 33.2587L8.62677 38.0869L8.63488 46.4425C8.63488 46.5251 8.70185 46.5917 8.78709 46.5917H9.60085C9.68406 46.5917 9.75305 46.5251 9.75305 46.4404V38.099L12.0888 38.1272V49.2276C12.0888 49.3103 12.1558 49.3789 12.241 49.3789H13.0548C13.138 49.3789 13.207 49.3124 13.207 49.2276V38.1413L15.626 38.1696V46.4425C15.626 46.5251 15.6929 46.5937 15.7782 46.5937H16.5919C16.6751 46.5937 16.7441 46.5272 16.7441 46.4425V38.1817L16.801 33.4563C16.8294 31.0362 18.812 29.088 21.2493 29.088H21.2615C21.852 29.088 22.3329 28.616 22.339 28.0291L22.408 22.2369L23.9747 22.2551V22.3317C23.9686 22.7512 24.3095 23.0981 24.7316 23.1021L25.0543 23.1062C25.4764 23.1102 25.8254 22.7714 25.8295 22.3539L25.8478 20.7747C25.8518 20.3553 25.5109 20.0084 25.0908 20.0043L24.7682 20.0003C24.3461 19.9963 23.997 20.3331 23.9929 20.7526V20.9966L22.4243 20.9784L22.4872 15.7267L24.0538 15.7449V15.8215C24.0477 16.241 24.3887 16.5879 24.8108 16.5919L25.1334 16.596C25.5555 16.6 25.9046 16.2612 25.9086 15.8437L25.9269 14.2645C25.931 13.845 25.59 13.4982 25.17 13.4941L24.8473 13.4901C24.4252 13.4861 24.0761 13.8249 24.0721 14.2424V14.4864L22.5034 14.4682L22.5663 9.21651L24.133 9.23466V9.3113C24.1269 9.73079 24.4678 10.0777 24.8899 10.0817L24.8838 10.0837ZM6.84501 22.6241C6.06371 22.6141 5.43867 21.9788 5.44882 21.2023C5.45897 20.4258 6.09821 19.8047 6.87951 19.8148C7.6608 19.8248 8.28584 20.4601 8.27569 21.2366C8.26555 22.0131 7.6263 22.6342 6.84501 22.6241ZM6.92009 16.2309C6.13879 16.2208 5.51376 15.5855 5.52391 14.8091C5.53405 14.0326 6.17329 13.4114 6.95459 13.4215C7.73589 13.4316 8.36092 14.0669 8.35078 14.8434C8.34063 15.6198 7.70139 16.241 6.92009 16.2309ZM6.99518 9.83768C6.21388 9.8276 5.58884 9.19231 5.59899 8.41584C5.60914 7.63938 6.24838 7.01821 7.02968 7.02829C7.81097 7.03838 8.43601 7.67367 8.42586 8.45013C8.41572 9.2266 7.77647 9.84777 6.99518 9.83768ZM18.9805 22.7673C18.1992 22.7572 17.5741 22.122 17.5843 21.3455C17.5944 20.569 18.2337 19.9479 19.015 19.9579C19.7963 19.968 20.4213 20.6033 20.4112 21.3798C20.401 22.1562 19.7618 22.7774 18.9805 22.7673ZM19.0556 16.3741C18.2743 16.364 17.6492 15.7287 17.6594 14.9523C17.6695 14.1758 18.3088 13.5546 19.0901 13.5647C19.8714 13.5748 20.4964 14.2101 20.4862 14.9866C20.4761 15.763 19.8369 16.3842 19.0556 16.3741ZM19.1306 9.98088C18.3493 9.97079 17.7243 9.3355 17.7345 8.55904C17.7446 7.78257 18.3838 7.1614 19.1651 7.17148C19.9464 7.18157 20.5715 7.81686 20.5613 8.59332C20.5512 9.36979 19.9119 9.99096 19.1306 9.98088Z"/>
</mask>
<path d="M24.8838 10.0837L25.2065 10.0878C25.6286 10.0918 25.9776 9.75298 25.9817 9.3355L26 7.75635C26.004 7.33686 25.6631 6.98997 25.243 6.98594L24.9204 6.98191C24.4983 6.97787 24.1492 7.31669 24.1451 7.73417V7.9782L22.5765 7.96005L22.6373 2.76076C22.6455 2.04883 21.9656 1.52245 21.2736 1.71405C20.6384 1.88951 20.0033 2.11135 19.3721 2.15371C19.2078 2.16581 19.0434 2.13152 18.8932 2.069C17.6289 1.53657 15.6868 0.372879 13.2699 0.37893C11.1168 0.382963 9.34313 1.41556 8.12958 1.91371C7.94085 1.99035 7.73183 2.01051 7.53092 1.97421L4.84813 1.49018C4.19063 1.37119 3.58588 1.86934 3.57777 2.53085L3.51689 7.72207L2.02938 7.70392V7.45989C2.0375 7.04039 1.69657 6.6935 1.27446 6.68947L0.951797 6.68544C0.529694 6.6814 0.180647 7.02023 0.176589 7.4377L0.158325 9.01685C0.154266 9.43634 0.495195 9.78323 0.915269 9.78726L1.23793 9.7913C1.66004 9.79533 2.00908 9.45651 2.01314 9.03903V8.9624L3.50065 8.98055L3.43774 14.2323L1.95023 14.2141V13.9701C1.95835 13.5506 1.61742 13.2037 1.19532 13.1997L0.872653 13.1956C0.45055 13.1916 0.101503 13.5304 0.0974443 13.9479L0.0791802 15.5271C0.0751215 15.9465 0.416051 16.2934 0.836125 16.2975L1.15879 16.3015C1.58089 16.3055 1.92994 15.9667 1.934 15.5492V15.4726L3.42354 15.4908L3.36063 20.7425L1.87312 20.7243V20.4803C1.88124 20.0608 1.54031 19.7139 1.1182 19.7099L0.795538 19.7058C0.373435 19.7018 0.024388 20.0406 0.0203293 20.4581L3.58662e-05 22.0413C-0.00402282 22.4608 0.336907 22.8077 0.75698 22.8117L1.07965 22.8157C1.50175 22.8198 1.8508 22.4809 1.85485 22.0635V21.9868L3.34439 22.005L3.27539 27.8194C3.26931 28.4083 3.74823 28.8903 4.3408 28.8903C6.75977 28.8903 8.712 30.8547 8.68359 33.2587L8.62677 38.0869L8.63488 46.4425C8.63488 46.5251 8.70185 46.5917 8.78709 46.5917H9.60085C9.68406 46.5917 9.75305 46.5251 9.75305 46.4404V38.099L12.0888 38.1272V49.2276C12.0888 49.3103 12.1558 49.3789 12.241 49.3789H13.0548C13.138 49.3789 13.207 49.3124 13.207 49.2276V38.1413L15.626 38.1696V46.4425C15.626 46.5251 15.6929 46.5937 15.7782 46.5937H16.5919C16.6751 46.5937 16.7441 46.5272 16.7441 46.4425V38.1817L16.801 33.4563C16.8294 31.0362 18.812 29.088 21.2493 29.088H21.2615C21.852 29.088 22.3329 28.616 22.339 28.0291L22.408 22.2369L23.9747 22.2551V22.3317C23.9686 22.7512 24.3095 23.0981 24.7316 23.1021L25.0543 23.1062C25.4764 23.1102 25.8254 22.7714 25.8295 22.3539L25.8478 20.7747C25.8518 20.3553 25.5109 20.0084 25.0908 20.0043L24.7682 20.0003C24.3461 19.9963 23.997 20.3331 23.9929 20.7526V20.9966L22.4243 20.9784L22.4872 15.7267L24.0538 15.7449V15.8215C24.0477 16.241 24.3887 16.5879 24.8108 16.5919L25.1334 16.596C25.5555 16.6 25.9046 16.2612 25.9086 15.8437L25.9269 14.2645C25.931 13.845 25.59 13.4982 25.17 13.4941L24.8473 13.4901C24.4252 13.4861 24.0761 13.8249 24.0721 14.2424V14.4864L22.5034 14.4682L22.5663 9.21651L24.133 9.23466V9.3113C24.1269 9.73079 24.4678 10.0777 24.8899 10.0817L24.8838 10.0837ZM6.84501 22.6241C6.06371 22.6141 5.43867 21.9788 5.44882 21.2023C5.45897 20.4258 6.09821 19.8047 6.87951 19.8148C7.6608 19.8248 8.28584 20.4601 8.27569 21.2366C8.26555 22.0131 7.6263 22.6342 6.84501 22.6241ZM6.92009 16.2309C6.13879 16.2208 5.51376 15.5855 5.52391 14.8091C5.53405 14.0326 6.17329 13.4114 6.95459 13.4215C7.73589 13.4316 8.36092 14.0669 8.35078 14.8434C8.34063 15.6198 7.70139 16.241 6.92009 16.2309ZM6.99518 9.83768C6.21388 9.8276 5.58884 9.19231 5.59899 8.41584C5.60914 7.63938 6.24838 7.01821 7.02968 7.02829C7.81097 7.03838 8.43601 7.67367 8.42586 8.45013C8.41572 9.2266 7.77647 9.84777 6.99518 9.83768ZM18.9805 22.7673C18.1992 22.7572 17.5741 22.122 17.5843 21.3455C17.5944 20.569 18.2337 19.9479 19.015 19.9579C19.7963 19.968 20.4213 20.6033 20.4112 21.3798C20.401 22.1562 19.7618 22.7774 18.9805 22.7673ZM19.0556 16.3741C18.2743 16.364 17.6492 15.7287 17.6594 14.9523C17.6695 14.1758 18.3088 13.5546 19.0901 13.5647C19.8714 13.5748 20.4964 14.2101 20.4862 14.9866C20.4761 15.763 19.8369 16.3842 19.0556 16.3741ZM19.1306 9.98088C18.3493 9.97079 17.7243 9.3355 17.7345 8.55904C17.7446 7.78257 18.3838 7.1614 19.1651 7.17148C19.9464 7.18157 20.5715 7.81686 20.5613 8.59332C20.5512 9.36979 19.9119 9.99096 19.1306 9.98088Z" fill="black" stroke="black" stroke-width="2" mask="url(#path-1-inside-1_2319_376)"/>
</svg>
