<svg width="34" height="26" viewBox="0 0 34 26" fill="none" xmlns="http://www.w3.org/2000/svg">
<path fill-rule="evenodd" clip-rule="evenodd" d="M33.2906 0.555179C32.8253 -0.0603616 31.9413 -0.182886 31.3272 0.282416L13.8777 13.4728C13.4882 13.7674 8.97815 17.4928 5.83335 20.3473C5.37534 20.763 4.80939 20.9337 4.19677 20.8403C3.87587 20.7907 3.56373 20.852 3.31722 21.0387C2.50914 21.6499 -0.895299 24.0697 0.223468 25.5517C1.34369 27.0336 4.60081 24.4183 5.40889 23.8072C5.6554 23.6205 5.7998 23.3375 5.83918 23.0151C5.91649 22.3996 6.23447 21.9022 6.75958 21.5755C10.3638 19.3277 15.1788 16.005 15.5682 15.7103L33.0178 2.51849C33.6333 2.05319 33.7559 1.16926 33.2906 0.553721V0.555179Z" fill="url(#paint0_radial_2319_383)"/>
<path fill-rule="evenodd" clip-rule="evenodd" d="M0.280957 0.555179C0.74626 -0.0603616 1.63019 -0.182886 2.24427 0.282416L19.6938 13.4728C20.0833 13.7674 24.5934 17.4928 27.7382 20.3473C28.1962 20.763 28.7621 20.9337 29.3748 20.8403C29.6956 20.7907 30.0078 20.852 30.2543 21.0387C31.0624 21.6499 34.4668 24.0697 33.3481 25.5517C32.2278 27.0336 28.9707 24.4183 28.1626 23.8072C27.9161 23.6205 27.7717 23.3375 27.7323 23.0151C27.655 22.3996 27.337 21.9022 26.8119 21.5755C23.2077 19.3277 18.3927 16.005 18.0033 15.7103L0.555179 2.51849C-0.0603621 2.05319 -0.182886 1.16926 0.282416 0.553721L0.280957 0.555179Z" fill="url(#paint1_radial_2319_383)"/>
<defs>
<radialGradient id="paint0_radial_2319_383" cx="0" cy="0" r="1" gradientUnits="userSpaceOnUse" gradientTransform="translate(16.7862 13.0002) scale(15.0137)">
<stop offset="0.57" stop-color="#161412"/>
<stop offset="0.8" stop-color="#161412"/>
<stop offset="1" stop-color="#161412"/>
</radialGradient>
<radialGradient id="paint1_radial_2319_383" cx="0" cy="0" r="1" gradientUnits="userSpaceOnUse" gradientTransform="translate(16.7868 13.0002) scale(15.0137 15.0137)">
<stop offset="0.57" stop-color="#161412"/>
<stop offset="0.8" stop-color="#161412"/>
<stop offset="1" stop-color="#161412"/>
</radialGradient>
</defs>
</svg>
